<svg width="40" height="40" viewBox="0 0 40 40" fill="none" xmlns="http://www.w3.org/2000/svg">
<rect width="40" height="40" rx="20" fill="#43C9F8" fill-opacity="0.08"/>
<path d="M12.3512 21.7211V21.5371C12.3827 20.9478 12.5686 20.3768 12.8907 19.881C13.4278 19.2792 13.7971 18.5482 13.9617 17.7607C14.002 17.1607 13.9617 16.5446 14.002 15.9365C14.2919 13.0162 17.1827 11 19.9527 11H20.0333C22.8516 11 25.67 13.0162 25.976 15.9365C26.0323 16.5366 25.976 17.1607 26.0243 17.7607C26.1849 18.5496 26.5547 19.2815 27.0953 19.881C27.4314 20.3712 27.6237 20.9446 27.6509 21.5371V21.7211C27.6558 22.5194 27.3698 23.2924 26.8456 23.8974C26.1732 24.6146 25.2591 25.0616 24.2769 25.1535C21.4087 25.5215 18.5048 25.5215 15.6366 25.1535C14.6658 25.0541 13.7645 24.6077 13.1001 23.8974C12.5924 23.2866 12.3261 22.5129 12.3512 21.7211Z" fill="#43C9F8"/>
<path opacity="0.4" d="M21.0484 26.3857C20.4766 26.3457 20.0096 26.3857 19.5426 26.3857C19.0794 26.3777 18.617 26.4261 18.1656 26.5297C17.7791 26.6177 17.3604 26.8257 17.3604 27.2658C17.4009 27.6911 17.6315 28.0758 17.9884 28.3139C18.6761 28.8391 19.5426 29.0773 20.4042 28.978C21.2416 28.9162 22.007 28.4846 22.4898 27.8019C22.7566 27.456 22.6957 26.9615 22.3529 26.6897C21.9469 26.4913 21.5008 26.3873 21.0484 26.3857Z" fill="#43C9F8"/>
</svg>
