<svg width="45" height="42" viewBox="0 0 45 42" fill="none" xmlns="http://www.w3.org/2000/svg">
<g clip-path="url(#clip0_1604_2770)" filter="url(#filter0_d_1604_2770)">
<path d="M3 26.0558L7.89491 25.1997L10.0475 37.5058L5.15263 38.3619L3 26.0558Z" fill="url(#paint0_linear_1604_2770)"/>
<path d="M11.9874 34.9477C12.839 34.2493 13.9288 33.9098 15.0265 34.001L25.1225 34.7636H25.1544C27.0706 34.751 28.9346 34.1372 30.4834 33.0095L41.9999 21.7209C41.0778 21.0693 39.8376 21.1005 38.9496 21.7977L38.9363 21.8081L33.2042 26.0941C33.3474 26.4347 33.4517 26.7899 33.5159 27.1539C33.579 27.5153 33.337 27.8601 32.9752 27.9231L23.6741 29.5503C23.6359 29.5566 23.5973 29.56 23.5587 29.5596C23.2129 29.5607 22.9238 29.2965 22.8941 28.9518C22.8644 28.6074 23.1038 28.2976 23.4448 28.2393L32.0305 26.7375C31.4193 25.1141 29.7409 24.1545 28.0321 24.4513L22.3739 25.441C21.2606 25.6343 20.1181 25.5746 19.0312 25.267L18.3981 25.0866C15.2725 24.1897 11.9065 25.0773 9.62988 27.3995L11.0789 35.6832L11.9874 34.9477Z" fill="url(#paint1_linear_1604_2770)"/>
<path d="M24.4983 20.4558C29.411 20.4558 33.3931 16.4738 33.3931 11.561C33.3931 6.64868 29.411 2.66626 24.4983 2.66626C19.5859 2.66626 15.6035 6.64868 15.6035 11.561C15.6091 16.4715 19.5882 20.4506 24.4983 20.4558ZM23.2596 6.77782C23.2596 6.41045 23.5576 6.11285 23.9246 6.11285C24.292 6.11285 24.5896 6.41045 24.5896 6.77782V11.7744H28.2187C28.5857 11.7744 28.8837 12.0724 28.8837 12.4394C28.8837 12.8067 28.5857 13.1044 28.2187 13.1044H23.9669C23.5995 13.1044 23.2596 12.7259 23.2596 12.3585V6.77782Z" fill="url(#paint2_linear_1604_2770)"/>
</g>
<defs>
<filter id="filter0_d_1604_2770" x="0.108002" y="-1.47886" width="44.784" height="44.784" filterUnits="userSpaceOnUse" color-interpolation-filters="sRGB">
<feFlood flood-opacity="0" result="BackgroundImageFix"/>
<feColorMatrix in="SourceAlpha" type="matrix" values="0 0 0 0 0 0 0 0 0 0 0 0 0 0 0 0 0 0 127 0" result="hardAlpha"/>
<feOffset dy="0.413143"/>
<feGaussianBlur stdDeviation="1.446"/>
<feComposite in2="hardAlpha" operator="out"/>
<feColorMatrix type="matrix" values="0 0 0 0 0.435294 0 0 0 0 0.415686 0 0 0 0 0.972549 0 0 0 0.21 0"/>
<feBlend mode="normal" in2="BackgroundImageFix" result="effect1_dropShadow_1604_2770"/>
<feBlend mode="normal" in="SourceGraphic" in2="effect1_dropShadow_1604_2770" result="shape"/>
</filter>
<linearGradient id="paint0_linear_1604_2770" x1="-3.43187" y1="42.0022" x2="22.6969" y2="34.8773" gradientUnits="userSpaceOnUse">
<stop stop-color="#CCF9FF"/>
<stop offset="0.126675" stop-color="#00ACDF"/>
<stop offset="0.198484" stop-color="#55D0FF"/>
<stop offset="0.394746" stop-color="#7CE8FF"/>
<stop offset="1" stop-color="#0080BF"/>
</linearGradient>
<linearGradient id="paint1_linear_1604_2770" x1="-19.9123" y1="39.6742" x2="36.0243" y2="-24.2265" gradientUnits="userSpaceOnUse">
<stop stop-color="#CCF9FF"/>
<stop offset="0.126675" stop-color="#00ACDF"/>
<stop offset="0.198484" stop-color="#55D0FF"/>
<stop offset="0.394746" stop-color="#7CE8FF"/>
<stop offset="1" stop-color="#0080BF"/>
</linearGradient>
<linearGradient id="paint2_linear_1604_2770" x1="-0.631934" y1="25.3759" x2="55.6341" y2="-3.27867" gradientUnits="userSpaceOnUse">
<stop stop-color="#CCF9FF"/>
<stop offset="0.126675" stop-color="#00ACDF"/>
<stop offset="0.198484" stop-color="#55D0FF"/>
<stop offset="0.394746" stop-color="#7CE8FF"/>
<stop offset="1" stop-color="#0080BF"/>
</linearGradient>
<clipPath id="clip0_1604_2770">
<rect width="39" height="39" fill="white" transform="translate(3 1)"/>
</clipPath>
</defs>
</svg>
